<?xml version="1.0" encoding="windows-1252"?>
<!-- Generator: Adobe Illustrator 19.0.0, SVG Export Plug-In . SVG Version: 6.00 Build 0)  -->
<svg version="1.1" id="Layer_1" xmlns="http://www.w3.org/2000/svg" xmlns:xlink="http://www.w3.org/1999/xlink" x="0px" y="0px" viewBox="0 0 512 512" style="enable-background:new 0 0 512 512;" xml:space="preserve">
<g>
	<g>
		<path d="M489.532,401.299V347.58c0-5.138-2.404-9.981-6.498-13.087l-51.54-39.108c-25.361-19.243-56.86-29.841-88.694-29.841    h-41.457c-9.073,0-16.428,7.355-16.428,16.428c0,5.431-0.898,10.653-2.531,15.542l-28.947-19.471l2.707-4.025    c5.064-7.528,3.067-17.736-4.462-22.8c-7.528-5.063-17.736-3.067-22.8,4.462l-11.874,17.653c-0.001,0.001-0.002,0.002-0.002,0.003    c0,0.001-0.001,0.002-0.002,0.003l-11.874,17.653c-5.064,7.528-3.067,17.736,4.462,22.8c2.814,1.893,6.001,2.799,9.154,2.799    c5.284,0,10.475-2.546,13.646-7.261l2.707-4.025l26.991,18.156c-7.624,4.861-16.662,7.689-26.354,7.689h-40.833    c-0.4-8.717-7.573-15.668-16.39-15.668h-41.839c-7.802,0-14.692-5.442-16.53-12.995l-5.507-34.221    c-1.441-8.959-9.878-15.049-18.83-13.609c-0.497,0.08-0.982,0.19-1.461,0.311c-4.353-7.641-11.089-13.751-19.195-17.314V82.786    c0-27.586-22.444-50.03-50.03-50.03c-9.073,0-16.428,7.355-16.428,16.428c0,9.073,7.355,16.428,16.428,16.428    c9.469,0,17.174,7.704,17.174,17.174v154.872c-14.438,6.345-24.551,20.775-24.551,37.529v128.948    C7.031,411.593,0,423.988,0,438.003c0,22.742,18.501,41.242,41.242,41.242h429.516c22.741,0,41.242-18.501,41.242-41.242    C512,422.02,502.856,408.143,489.532,401.299z M50.602,275.188c0-4.478,3.644-8.122,8.123-8.122c4.479,0,8.123,3.644,8.123,8.122    v21.616c0,37.056,30.147,67.204,67.203,67.204h101.684c39.609,0,72.752-28.217,80.382-65.607h26.681    c24.707,0,49.152,8.225,68.835,23.159l45.043,34.177v41.023H50.602V275.188z M470.758,446.388H41.242    c-4.624,0-8.386-3.762-8.386-8.386c0-4.624,3.762-8.386,8.386-8.386h429.516c4.624,0,8.386,3.762,8.386,8.386    C479.144,442.626,475.382,446.388,470.758,446.388z"/>
	</g>
</g>
<g>
</g>
<g>
</g>
<g>
</g>
<g>
</g>
<g>
</g>
<g>
</g>
<g>
</g>
<g>
</g>
<g>
</g>
<g>
</g>
<g>
</g>
<g>
</g>
<g>
</g>
<g>
</g>
<g>
</g>
</svg>